<svg width="30" height="30" viewBox="0 0 30 30" fill="none" xmlns="http://www.w3.org/2000/svg">
<path id="Vector" d="M12.6732 11.3293C11.5004 12.1669 11.1325 13.773 12.0181 14.91C12.911 16.0565 13.9436 17.089 15.0901 17.9819C16.227 18.8675 17.833 18.4995 18.6707 17.3268C19.1608 16.6408 20.086 16.4288 20.826 16.833C23.1707 18.1138 25.7618 18.8922 28.4648 19.1062C29.3317 19.1748 30 19.8982 30 20.7677V28.2057C30 29.0602 29.3537 29.7762 28.5037 29.8635C27.6205 29.9543 26.7295 30 25.8333 30C11.566 30 0 18.434 0 4.16667C0 3.27045 0.0457002 2.37952 0.136484 1.49627C0.223834 0.64625 0.9399 0 1.79442 0H9.23237C10.1018 0 10.8252 0.6684 10.8938 1.53515C11.1078 4.23813 11.8862 6.8294 13.167 9.17407C13.5712 9.914 13.3592 10.8392 12.6732 11.3293ZM7.16766 13.4302C6.67452 12.4384 7.0378 11.2582 7.93909 10.6144C8.88711 9.93722 9.20512 8.68549 8.81226 7.5887C8.55173 6.86135 8.32906 6.12079 8.14509 5.36953C7.86139 4.21104 6.8624 3.33333 5.66968 3.33333H4.18197C3.71681 3.33333 3.33333 3.70151 3.33333 4.16667C3.33333 16.593 13.407 26.6667 25.8333 26.6667C26.2985 26.6667 26.6667 26.2832 26.6667 25.818V24.3307C26.6667 23.1377 25.7888 22.1385 24.6301 21.8548C23.879 21.6708 23.1385 21.4482 22.4113 21.1877C21.3145 20.7948 20.0628 21.1129 19.3857 22.0609C18.7419 22.9622 17.5616 23.3255 16.5698 22.8323C16.2572 22.6769 15.9491 22.5139 15.6457 22.3435L15.5488 22.2883C12.2828 20.4312 9.5689 17.7172 7.71167 14.4512L7.65657 14.3543C7.48614 14.0509 7.32309 13.7428 7.16766 13.4302Z" fill="white"/>
</svg>
