<svg width="218" height="35" viewBox="0 0 218 35" fill="none" xmlns="http://www.w3.org/2000/svg">
<g id="Group 16">
<path id="Vector" d="M78.4964 12.2422C75.5978 12.2422 73.2497 14.5911 73.2497 17.4888C73.2497 20.3872 75.5987 22.7354 78.4964 22.7354C81.3948 22.7354 83.743 20.3865 83.743 17.4888C83.743 14.5904 81.3941 12.2422 78.4964 12.2422ZM78.4964 8.7444C83.324 8.7444 87.2408 12.6568 87.2408 17.4888C87.2408 22.3166 83.3284 26.2332 78.4964 26.2332C73.6686 26.2332 69.752 22.3208 69.752 17.4888C69.752 12.6611 73.6644 8.7444 78.4964 8.7444ZM89.8641 8.3057C89.8641 9.51262 88.8833 10.4918 87.678 10.4918C86.4711 10.4918 85.4919 9.51111 85.4919 8.3057C85.4919 7.10028 86.4725 6.12108 87.678 6.12108C88.8818 6.11956 89.8641 7.10028 89.8641 8.3057ZM78.4964 3.49776C74.1688 3.49776 73.4634 3.50922 71.4506 3.59885C70.0793 3.66322 69.1601 3.84766 68.306 4.17925C67.5469 4.47362 66.9994 4.82513 66.416 5.4085C65.8304 5.99411 65.4796 6.54017 65.1864 7.29953C64.854 8.15559 64.6696 9.07339 64.6064 10.4428C64.5159 12.3737 64.5053 13.0485 64.5053 17.4888C64.5053 21.8164 64.5168 22.5217 64.6064 24.5343C64.6708 25.9051 64.8555 26.8257 65.1863 27.6778C65.4814 28.4378 65.8336 28.9866 66.4142 29.5673C67.0021 30.1544 67.5498 30.5064 68.302 30.7967C69.1665 31.1309 70.0851 31.3156 71.4504 31.3788C73.3812 31.4692 74.056 31.4799 78.4964 31.4799C82.824 31.4799 83.5293 31.4683 85.5419 31.3788C86.9097 31.3146 87.831 31.1294 88.6854 30.7988C89.4433 30.5045 89.9939 30.1511 90.5749 29.5709C91.1628 28.9821 91.5142 28.4358 91.8048 27.6818C92.1382 26.8205 92.3232 25.9006 92.3863 24.5349C92.4768 22.6039 92.4874 21.929 92.4874 17.4888C92.4874 13.1612 92.4759 12.4559 92.3863 10.4432C92.322 9.07505 92.1368 8.15239 91.8059 7.29839C91.5122 6.54148 91.1595 5.99228 90.5766 5.4085C89.99 4.82193 89.4454 4.47177 88.6855 4.17881C87.8302 3.84673 86.9109 3.66209 85.5423 3.59886C83.6115 3.50834 82.9366 3.49776 78.4964 3.49776ZM78.4964 0C83.2474 0 83.8406 0.0174887 85.7061 0.104933C87.5671 0.190925 88.8366 0.485315 89.9515 0.918162C91.1042 1.36268 92.0778 1.96312 93.0499 2.9352C94.0205 3.9073 94.6211 4.88375 95.067 6.03364C95.4983 7.1471 95.7928 8.41794 95.8802 10.279C95.9633 12.1445 95.9852 12.7377 95.9852 17.4888C95.9852 22.24 95.9677 22.833 95.8802 24.6986C95.7942 26.5597 95.4983 27.8291 95.067 28.944C94.6225 30.0968 94.0205 31.0703 93.0499 32.0425C92.0778 33.0131 91.0999 33.6135 89.9515 34.0595C88.8366 34.4909 87.5671 34.7852 85.7061 34.8727C83.8406 34.9558 83.2474 34.9776 78.4964 34.9776C73.7452 34.9776 73.1521 34.9601 71.2866 34.8727C69.4255 34.7866 68.1576 34.4909 67.0412 34.0595C65.8898 33.6149 64.9148 33.0131 63.9428 32.0425C62.9707 31.0703 62.3717 30.0925 61.9257 28.944C61.4929 27.8291 61.1999 26.5597 61.1125 24.6986C61.0294 22.833 61.0076 22.24 61.0076 17.4888C61.0076 12.7377 61.0251 12.1445 61.1125 10.279C61.1985 8.41649 61.4929 7.14855 61.9257 6.03364C62.3702 4.8823 62.9707 3.9073 63.9428 2.9352C64.9148 1.96312 65.8913 1.36413 67.0412 0.918162C68.1561 0.485315 69.424 0.192377 71.2866 0.104933C73.1521 0.0218609 73.7452 0 78.4964 0Z" fill="white" fill-opacity="0.84"/>
<path id="Vector_2" d="M141.253 31.3716C148.154 30.511 153.495 24.6235 153.495 17.4888C153.495 9.76176 147.231 3.49776 139.504 3.49776C131.777 3.49776 125.513 9.76176 125.513 17.4888C125.513 24.6235 130.853 30.511 137.755 31.3716V20.9866H134.257V17.4888H137.755V14.5958C137.755 12.2571 137.998 11.409 138.456 10.554C138.913 9.69901 139.584 9.028 140.439 8.57074C141.108 8.21281 141.938 7.99679 143.389 7.90414C143.965 7.86736 144.71 7.91426 145.625 8.04485V11.3677H144.75C143.146 11.3677 142.484 11.4435 142.088 11.6551C141.843 11.7864 141.671 11.9581 141.54 12.2036C141.328 12.5993 141.253 12.9916 141.253 14.5958V17.4888H145.625L144.75 20.9866H141.253V31.3716ZM139.504 34.9776C129.845 34.9776 122.015 27.1475 122.015 17.4888C122.015 7.83 129.845 0 139.504 0C149.162 0 156.993 7.83 156.993 17.4888C156.993 27.1475 149.162 34.9776 139.504 34.9776Z" fill="white" fill-opacity="0.84"/>
<path id="Vector_3" d="M24.2469 5.92791C21.4886 5.92791 19.2399 8.13914 19.1908 10.8917L19.1418 13.6383C19.1315 14.216 18.6547 14.6761 18.077 14.6658C18.0358 14.6651 17.9949 14.6619 17.9542 14.6564L15.2325 14.2851C11.6516 13.7968 8.21947 12.1486 4.92697 9.40518C3.88423 15.1765 5.91968 19.176 10.8257 22.2602L13.8722 24.1755C14.3614 24.4831 14.5086 25.129 14.2011 25.6181C14.1306 25.7302 14.0395 25.8279 13.9325 25.906L11.157 27.9339C12.8073 28.0376 14.3761 27.9653 15.6763 27.7058C23.9029 26.064 29.3734 19.8731 29.3734 9.66147C29.3734 8.82777 27.6081 5.92791 24.2469 5.92791ZM15.7037 10.8295C15.7867 6.18214 19.5798 2.44029 24.2469 2.44029C26.6243 2.44029 28.7749 3.41121 30.3239 4.97814C31.5645 4.96881 32.6198 5.28245 34.9776 3.85213C34.3948 6.71262 34.1055 7.95416 32.861 9.66147C32.861 22.9869 24.6701 29.4674 16.3588 31.1259C10.6606 32.2631 2.37358 30.396 0 27.9149C1.20921 27.8219 6.12769 27.293 8.96952 25.2128C6.56479 23.6251 -3.00622 17.9917 3.28256 2.85248C6.23564 6.29939 9.22938 8.64565 12.2638 9.89127C14.2821 10.7198 14.7778 10.7032 15.7037 10.8295Z" fill="white" fill-opacity="0.84"/>
<path id="Vector_4" d="M192.209 28.8467L193.476 29.5858C195.594 30.8205 198 31.4799 200.511 31.4799C208.238 31.4799 214.502 25.2159 214.502 17.4888C214.502 9.76176 208.238 3.49776 200.511 3.49776C192.784 3.49776 186.52 9.76176 186.52 17.4888C186.52 20.0007 187.18 22.4081 188.415 24.526L189.154 25.7921L188.011 29.9923L192.209 28.8467ZM183.03 34.9776L185.394 26.2883C183.886 23.7036 183.022 20.6971 183.022 17.4888C183.022 7.83 190.852 0 200.511 0C210.17 0 218 7.83 218 17.4888C218 27.1475 210.17 34.9776 200.511 34.9776C197.304 34.9776 194.298 34.1144 191.714 32.6074L183.03 34.9776ZM194.2 9.28364C194.434 9.26718 194.669 9.26466 194.904 9.2761C194.998 9.28232 195.093 9.29327 195.187 9.30417C195.466 9.33633 195.772 9.50595 195.875 9.73941C196.396 10.9224 196.903 12.1121 197.393 13.3083C197.502 13.5724 197.436 13.9147 197.23 14.2459C197.126 14.4157 196.962 14.6539 196.771 14.8975C196.573 15.1506 196.148 15.6159 196.148 15.6159C196.148 15.6159 195.975 15.8226 196.04 16.0799C196.066 16.1771 196.146 16.3188 196.22 16.4379C196.26 16.5038 196.298 16.5628 196.322 16.6035C196.77 17.3508 197.372 18.1084 198.106 18.8208C198.317 19.0248 198.521 19.2331 198.741 19.4266C199.56 20.1487 200.486 20.7388 201.487 21.1758L201.496 21.1798C201.644 21.2435 201.72 21.2783 201.936 21.3701C202.045 21.4163 202.157 21.4561 202.271 21.4864C202.313 21.4972 202.355 21.5034 202.398 21.5063C202.681 21.5233 202.844 21.3419 202.914 21.2585C204.179 19.7256 204.295 19.6256 204.304 19.6263V19.6291C204.47 19.4538 204.732 19.393 204.965 19.4073C205.071 19.4138 205.177 19.4343 205.274 19.4785C206.204 19.9028 207.725 20.5646 207.725 20.5646L208.742 21.0217C208.912 21.1039 209.068 21.2975 209.075 21.4857C209.08 21.6027 209.093 21.7916 209.051 22.1372C208.996 22.5896 208.858 23.1344 208.722 23.4198C208.625 23.62 208.501 23.7977 208.356 23.9481C208.16 24.152 208.014 24.2759 207.778 24.4518C207.634 24.5588 207.559 24.6092 207.559 24.6092C207.317 24.7624 207.18 24.839 206.89 24.9931C206.44 25.2328 205.943 25.3707 205.433 25.3969C205.108 25.4135 204.784 25.4369 204.46 25.4195C204.446 25.4186 203.466 25.2682 203.466 25.2682C200.98 24.6141 198.68 23.3888 196.75 21.6896C196.355 21.3423 195.99 20.9665 195.616 20.5946C194.061 19.0467 192.884 17.3776 192.17 15.7987C191.818 15.0201 191.595 14.1862 191.592 13.3282C191.586 12.2667 191.933 11.2334 192.58 10.3916C192.707 10.2257 192.828 10.0535 193.037 9.85645C193.258 9.64772 193.398 9.53567 193.55 9.45814C193.752 9.3548 193.974 9.29953 194.2 9.28364Z" fill="white" fill-opacity="0.84"/>
</g>
</svg>
