<svg width="15" height="18" viewBox="0 0 15 18" fill="none" xmlns="http://www.w3.org/2000/svg">
<path id="Vector" opacity="0.8" d="M0 18C0 14.2129 3.22355 11.1429 7.2 11.1429C11.1765 11.1429 14.4 14.2129 14.4 18H12.6C12.6 15.1597 10.1823 12.8571 7.2 12.8571C4.21766 12.8571 1.8 15.1597 1.8 18H0ZM7.2 10.2857C4.2165 10.2857 1.8 7.98429 1.8 5.14286C1.8 2.30143 4.2165 0 7.2 0C10.1835 0 12.6 2.30143 12.6 5.14286C12.6 7.98429 10.1835 10.2857 7.2 10.2857ZM7.2 8.57143C9.189 8.57143 10.8 7.03714 10.8 5.14286C10.8 3.24857 9.189 1.71429 7.2 1.71429C5.211 1.71429 3.6 3.24857 3.6 5.14286C3.6 7.03714 5.211 8.57143 7.2 8.57143Z" fill="#4706B0"/>
</svg>
