<svg width="33" height="44" viewBox="0 0 33 44" fill="none" xmlns="http://www.w3.org/2000/svg">
<path d="M13.8844 28.5719C13.8844 27.1865 14.1021 25.9594 14.5375 24.8906C15.0125 23.8219 15.5865 22.8719 16.2594 22.0406C16.9719 21.2094 17.724 20.4375 18.5156 19.725C19.3073 19.0125 20.0396 18.3396 20.7125 17.7062C21.425 17.0333 21.999 16.3406 22.4344 15.6281C22.9094 14.9156 23.1469 14.124 23.1469 13.2531C23.1469 11.8281 22.5531 10.6802 21.3656 9.80937C20.2177 8.93854 18.674 8.50312 16.7344 8.50312C14.874 8.50312 13.2115 8.89896 11.7469 9.69062C10.2823 10.4427 9.075 11.5115 8.125 12.8969L0.940625 8.68125C2.52396 6.26666 4.72083 4.34687 7.53125 2.92187C10.3417 1.45729 13.7458 0.724999 17.7438 0.724999C20.7125 0.724999 23.325 1.16042 25.5813 2.03125C27.8375 2.8625 29.599 4.08958 30.8656 5.7125C32.1719 7.33542 32.825 9.33437 32.825 11.7094C32.825 13.2531 32.5875 14.6187 32.1125 15.8062C31.6375 16.9937 31.024 18.0229 30.2719 18.8937C29.5198 19.7646 28.7083 20.576 27.8375 21.3281C27.0063 22.0802 26.2146 22.8125 25.4625 23.525C24.7104 24.2375 24.0771 24.9896 23.5625 25.7812C23.0875 26.5729 22.85 27.5031 22.85 28.5719H13.8844ZM18.3969 43.475C16.7344 43.475 15.3688 42.9406 14.3 41.8719C13.2313 40.8031 12.6969 39.5365 12.6969 38.0719C12.6969 36.5677 13.2313 35.3208 14.3 34.3312C15.3688 33.3021 16.7344 32.7875 18.3969 32.7875C20.099 32.7875 21.4646 33.3021 22.4938 34.3312C23.5625 35.3208 24.0969 36.5677 24.0969 38.0719C24.0969 39.5365 23.5625 40.8031 22.4938 41.8719C21.4646 42.9406 20.099 43.475 18.3969 43.475Z" fill="white" fill-opacity="0.9"/>
</svg>
