<svg xmlns="http://www.w3.org/2000/svg" width="99" height="66" viewBox="0 0 99 66" fill="none">
  <path d="M7.56824 65.7715C5.47212 65.4575 3.92345 64.6137 2.38247 62.9469C1.23714 61.7073 0.597941 60.4661 0.244517 58.7951C-0.0797019 57.263 -0.0805273 56.8035 0.236267 55.321C1.02825 51.5758 3.95324 48.8148 7.68968 48.2843C9.28685 48.0612 11.0563 48.2843 12.4904 48.9867C13.1083 49.2759 13.6444 49.5156 13.682 49.5156C13.7233 49.5156 13.748 49.3173 13.748 49.0776V48.6396H15.6899H17.6317V57.0399V65.4393H15.6899H13.748V65.0013C13.748 64.7617 13.715 64.5633 13.682 64.5633C13.6408 64.5633 13.1078 64.803 12.4904 65.0839C11.8725 65.3732 10.8509 65.6872 10.2198 65.7864C8.94902 65.9847 8.94456 65.9847 7.57179 65.7839L7.56824 65.7715ZM10.9224 61.4594C12.5011 60.6578 13.7469 58.7563 13.7469 57.1432C13.7469 54.5095 11.4646 52.1642 8.90496 52.1675C6.24199 52.1716 4.03211 54.3673 4.04143 57.001C4.04836 58.9431 4.99874 60.4859 6.72725 61.3619C7.72639 61.866 7.95227 61.9156 9.0688 61.8495C9.75767 61.7668 10.5778 61.6329 10.9224 61.4594ZM26.7284 65.769C25.369 65.5624 23.4243 64.6245 22.3215 63.6427C19.1047 60.7785 18.4376 55.8623 20.7743 52.241C22.606 49.4016 26.0506 47.8182 29.3691 48.2884C30.4716 48.4454 32.2088 49.0239 32.539 49.3503C32.6314 49.4412 32.77 49.5156 32.8475 49.5156C32.9218 49.5156 32.9886 48.0041 32.9886 46.1563V42.7962H35.0187H37.0489V54.1136V65.431H35.0187H32.9886V64.993C32.9886 64.4807 32.9391 64.4641 32.4086 64.803C31.1705 65.6046 28.5455 66.0442 26.7284 65.769ZM30.3064 61.3511C32.078 60.4644 33.0024 58.9447 32.9756 56.963C32.9426 54.3839 31.0903 52.4154 28.5116 52.2154C25.7123 52.0005 23.2797 54.2896 23.2797 57.1432C23.2797 59.0587 24.8796 61.1412 26.8001 61.7247C27.8691 62.047 29.193 61.9048 30.3064 61.3511ZM52.5024 65.7632C50.8746 65.5236 49.0346 64.5584 47.7379 63.2601C45.9752 61.4941 45.1699 59.5405 45.1699 57.03C45.1699 54.5186 45.9751 52.565 47.7379 50.799C50.3379 48.195 54.2554 47.4686 57.503 48.9884C58.1209 49.2776 58.6569 49.5173 58.6945 49.5173C58.7358 49.5173 58.7605 48.0033 58.7605 46.1522V42.7863L60.7465 42.8689L62.7326 42.9516L62.7738 54.2244L62.8233 65.498H60.7919H58.7605V65.06C58.7605 64.8203 58.7275 64.622 58.6945 64.622C58.6532 64.622 58.1203 64.8616 57.5029 65.1426C56.885 65.4319 55.8634 65.7459 55.2322 65.8451C53.9556 66.0517 53.9744 66.0517 52.5023 65.8451L52.5024 65.7632ZM55.854 61.4759C59.633 59.7124 59.7324 54.6343 56.0272 52.641C55.0232 52.1038 52.7976 52.1038 51.7824 52.641C50.0214 53.5781 48.927 55.5474 49.1007 57.4671C49.2088 58.6629 49.5685 59.4389 50.4416 60.3595C51.8921 61.8899 54.024 62.3296 55.854 61.4759ZM71.7383 65.7872C67.4061 65.1013 64.2398 61.4016 64.2398 57.03C64.2398 52.1501 68.0865 48.2777 72.9742 48.2372C74.4772 48.2372 76.0883 48.5925 77.0885 49.1743C77.8252 49.604 77.8285 49.604 77.8285 49.0751V48.6371H79.8586H81.8887V57.0374V65.4368H79.8586H77.8285V64.9988C77.8285 64.4947 77.7064 64.4617 77.2131 64.8335C76.2746 65.5442 73.3643 66.0574 71.738 65.7988L71.7383 65.7872ZM74.6577 61.6247C75.7527 61.2363 76.8444 60.2653 77.3706 59.2075C78.2883 57.3622 77.8285 54.7103 76.3791 53.4889C73.797 51.3122 70.1979 51.9658 68.6971 54.883C68.0676 56.1069 68.0429 57.872 68.6393 59.1108C69.1277 60.1264 70.3461 61.2445 71.3548 61.6032C72.3259 61.9503 73.7188 61.9585 74.6582 61.6032L74.6577 61.6247ZM88.7841 65.3426C85.7752 64.6567 83.9484 62.851 83.779 60.3892L83.746 59.8603L85.9968 59.7777C88.1745 59.6951 88.2476 59.7777 88.2476 60.1C88.2476 60.7942 88.7839 61.5313 89.5392 61.8742C90.0648 62.1139 90.6863 62.2131 91.6928 62.2131C93.3564 62.218 94.2039 61.866 94.5471 61.0214C94.7393 60.5504 94.7236 60.4264 94.4233 60.0438C93.9721 59.4653 93.2376 59.1901 90.3658 58.5034C86.4748 57.5729 85.0429 56.6771 84.534 54.8565C84.0365 53.0765 84.7221 50.642 86.0326 49.5305C87.7717 48.057 91.1392 47.5471 94.2495 48.2876C96.7268 48.8743 98.3611 50.5552 98.5162 52.6683L98.5739 53.4616L96.4346 53.5442L94.2951 53.6269L94.1961 53.131C94.1384 52.8583 93.933 52.4286 93.7325 52.1716C93.0807 51.3411 90.7665 51.0775 89.4417 51.684C88.8996 51.932 88.5166 52.7245 88.6843 53.2534C88.8617 53.8153 89.6493 54.1335 92.8507 54.9532C94.4607 55.3664 96.1069 55.8714 96.509 56.0763C98.4116 57.049 99.0971 58.2381 98.9891 60.3793C98.8711 62.718 97.6309 64.2807 95.2196 65.1277C93.8175 65.6236 90.4306 65.7558 88.7864 65.3839L88.7841 65.3426ZM39.0337 56.8085L39.0832 48.1876L41.2457 48.105L43.4082 48.0223V56.6928V65.3633H41.1999H38.9915L39.041 56.7424L39.0337 56.8085ZM38.9924 44.9167V42.9714H41.1991H43.4058V44.9167V46.8612H41.1991H38.9924V44.9167ZM95.1199 45.9869C94.2666 45.7307 93.8948 45.4332 93.5419 44.7407C93.089 43.8515 93.0939 43.0995 93.5584 42.2723C94.2481 41.0435 95.7606 40.6079 97.0361 41.2715C98.8307 42.2045 98.7166 44.9572 96.848 45.8068C96.042 46.1704 95.8133 46.1935 95.1199 45.9869ZM96.9095 45.3175C98.7115 44.2515 97.876 41.3757 95.7642 41.3757C94.3248 41.3757 93.2762 42.7756 93.716 44.111C94.1557 45.4456 95.7046 46.0307 96.9095 45.3175ZM94.6005 43.473V42.0335L95.4874 42.1409C95.975 42.2235 96.4518 42.2979 96.5466 42.3558C96.8609 42.5541 96.7264 43.3003 96.3263 43.5813C96.1102 43.73 96.0136 43.854 96.1118 43.854C96.2092 43.854 96.4303 44.0937 96.6027 44.3829C96.8725 44.8374 96.8782 44.9118 96.6439 44.9118C96.4954 44.9118 96.2554 44.6804 96.111 44.3994C95.8899 43.9697 95.5154 43.6722 95.2028 43.6722C95.1615 43.6722 95.1285 43.9532 95.1285 44.292C95.1285 44.7217 95.046 44.9118 94.8637 44.9118C94.65 44.9118 94.6005 44.6316 94.6005 43.473ZM96.2941 43.1177C96.4443 42.878 95.9006 42.4401 95.4494 42.4401C95.2267 42.4401 95.1302 42.5723 95.1302 42.878C95.1302 43.2499 95.2135 43.316 95.6491 43.316C95.9345 43.316 96.2249 43.2251 96.2942 43.1094L96.2941 43.1177ZM11.3845 41.0087C10.7872 39.989 10.4117 39.1684 10.5018 39.0816C10.7353 38.8585 24.5219 30.5896 24.6635 30.5896C24.7295 30.5896 26.3285 33.1556 28.2149 36.2925C30.1013 39.4287 31.758 42.1748 31.8965 42.3929L32.1481 42.7896L22.2861 42.7863L12.424 42.783L11.3845 41.0087ZM33.431 33.477C30.3618 28.3542 27.8353 24.0876 27.8166 23.995C27.7671 23.7554 42.014 15.151 42.1688 15.3262C42.2711 15.4419 58.2821 42.1756 58.5381 42.6582C58.5794 42.7409 54.1991 42.7904 48.81 42.7904H39.0114L33.431 33.477ZM55.3032 25.6668L45.0459 8.54239L52.1548 4.26995C56.0647 1.9197 59.33 -0.00165171 59.4111 1.06551e-06C59.5514 0.00330662 85.0677 42.4508 85.0677 42.6814C85.0677 42.764 80.6786 42.7888 75.3141 42.7888H65.5606L55.3032 25.6668Z" fill="white" fill-opacity="0.9"/>
</svg>