<svg xmlns="http://www.w3.org/2000/svg" width="11" height="12" viewBox="0 0 11 12" fill="#4706b0bf">
  <path d="M4.73915 1.34164C4.97864 0.604593 6.02136 0.604592 6.26085 1.34164L7.00424 3.62959C7.11134 3.9592 7.41851 4.18237 7.76509 4.18237H10.1708C10.9458 4.18237 11.268 5.17407 10.641 5.62959L8.69476 7.04361C8.41437 7.24733 8.29705 7.60842 8.40415 7.93804L9.14754 10.226C9.38703 10.963 8.54344 11.5759 7.91647 11.1204L5.97023 9.70639C5.68984 9.50267 5.31016 9.50267 5.02977 9.70639L3.08353 11.1204C2.45656 11.5759 1.61297 10.963 1.85246 10.226L2.59585 7.93804C2.70295 7.60842 2.58563 7.24733 2.30524 7.04361L0.358996 5.62959C-0.267975 5.17407 0.0542443 4.18237 0.829223 4.18237H3.23491C3.58149 4.18237 3.88866 3.9592 3.99576 3.62959L4.73915 1.34164Z" fill="#4706B0" fill-opacity="0.75"/>
</svg>