<svg xmlns="http://www.w3.org/2000/svg" width="80" height="80" viewBox="0 0 80 80" fill="none">
<path d="M13.6733 70.11C20.7033 76.27 29.9233 80 40 80C50.0864 80 59.2964 76.27 66.34 70.11C72.5964 63.7368 51.9532 41.08 40 32.0532C28.06 41.08 7.40331 63.7368 13.6733 70.11ZM50.8732 22.09C59.2064 31.96 75.82 56.4668 71.1264 65.13C76.6732 58.2668 80 49.5368 80 40.0132C80 28.88 75.45 18.8067 68.1 11.56C68.1 11.56 68.01 11.4867 67.8264 11.42C67.6164 11.3467 67.32 11.27 66.89 11.27C64.9164 11.27 60.2732 12.7167 50.8732 22.09ZM12.18 11.42C11.99 11.4867 11.9066 11.5567 11.8933 11.56C4.55 18.8067 0 28.88 0 40.0132C0 49.5268 3.32664 58.2568 8.86999 65.1232C4.2 56.44 20.8 31.9533 29.1366 22.09C19.7366 12.7133 15.0833 11.2733 13.1166 11.2733C12.68 11.2733 12.3733 11.3433 12.18 11.4267V11.42ZM40 11.8367C40 11.8367 30.1833 6.09332 22.5166 5.82C19.5066 5.71 17.67 6.80332 17.4466 6.95C24.5966 2.15332 32.1964 0 39.9464 0H40C47.78 0 55.35 2.15332 62.5532 6.95C62.3264 6.79668 60.5032 5.71 57.4864 5.82C49.82 6.09332 40 11.8167 40 11.8167V11.8367Z" fill="#2DAB49"/>
</svg>