<svg width="29" height="29" viewBox="0 0 29 29" fill="none" xmlns="http://www.w3.org/2000/svg">
<path id="Vector" d="M4.49966 6.35744L0 1.93065L1.96244 0L6.4621 4.42678H27.6123C28.3787 4.42678 29 5.03799 29 5.79196C29 5.92482 28.9803 6.05697 28.9416 6.18424L25.6112 17.1057C25.4351 17.6831 24.8948 18.0786 24.282 18.0786H7.27497V20.8089H22.5392V23.5393H5.88732C5.12093 23.5393 4.49966 22.9281 4.49966 22.1741V6.35744ZM7.27497 7.15714V15.3482H23.2496L25.7473 7.15714H7.27497ZM6.58115 29C5.43157 29 4.49966 28.0831 4.49966 26.9522C4.49966 25.8213 5.43157 24.9045 6.58115 24.9045C7.73072 24.9045 8.66263 25.8213 8.66263 26.9522C8.66263 28.0831 7.73072 29 6.58115 29ZM23.233 29C22.0834 29 21.1516 28.0831 21.1516 26.9522C21.1516 25.8213 22.0834 24.9045 23.233 24.9045C24.3826 24.9045 25.3145 25.8213 25.3145 26.9522C25.3145 28.0831 24.3826 29 23.233 29Z" fill="white"/>
</svg>
